<?xml version="1.0" encoding="UTF-8"?>
<svg id="Capa_2" data-name="Capa 2" xmlns="http://www.w3.org/2000/svg" viewBox="0 0 162.53 197.05">
  <defs>
    <style>
      .cls-1 {
        fill: #ecc14e;
      }

      .cls-2 {
        fill: #050504;
      }
    </style>
  </defs>
  <g id="Capa_2-2" data-name="Capa 2">
    <g>
      <path class="cls-2" d="M142.04.25c12.48,0,20.24,8.99,20.24,23.47,0,12.52-13.16,36.79-23.74,56.3-4.06,7.49-7.65,14.1-9.67,18.56,1.36,1.1,2.66,2.33,3.86,3.69,5.28,6.01,7.93,13.56,7.08,20.21l-.1.79c-.98,7.81-3.29,26.09-13.56,42.44-12.96,20.63-33.76,31.09-61.82,31.09-37.96,0-48.66-26.45-50.14-40.1-3.47-1.13-6.55-3.39-8.96-6.63-3.32-4.46-5.09-10.5-4.97-17.02.56-31.74,19.98-41.5,27.09-41.5h.07c5.23.05,8.44,1.85,10.49,3.85.62-.75,1.26-1.47,1.93-2.14,4.92-5,10.7-7.49,17.07-7.44.81,0,1.56.06,2.28.14-3.49-7.51-7.05-14.18-10.29-20.25-8.62-16.12-15.42-28.86-14.64-44.65C34.79,10.33,44.35.91,54.72.91c26.02,0,33.96,31.11,39.75,53.83.8,3.12,1.54,6.05,2.28,8.67.89-2.53,1.83-5.46,2.76-8.34C106.53,33.24,117.15.25,142.04.25ZM155.28,23.72c0-6.15-1.72-16.47-13.24-16.47-19.79,0-29.46,30.06-35.86,49.96-3.1,9.61-4.96,15.18-7.35,17.87-.79.89-1.98,1.32-3.16,1.13-1.18-.18-2.18-.95-2.66-2.04-1.92-4.37-3.5-10.55-5.32-17.7-5.23-20.49-12.39-48.56-32.97-48.56-6.58,0-13.13,6.56-13.47,13.5-.69,13.85,5.72,25.83,13.82,41,4.36,8.17,9.3,17.41,13.93,28.41.61.7,1.12,1.43,1.52,2.12,2.88,4.97,2.75,11.3,1.82,15.91,1.56-.18,3.18-.29,4.89-.29,5.16,0,10.02-3.52,15.16-7.24,6.02-4.36,12.25-8.87,20.18-8.87,3.51,0,7.02.83,10.33,2.37,2.18-4.67,5.63-11.02,9.48-18.14,9.67-17.81,22.9-42.22,22.9-52.96ZM132.87,121.59c.6-4.68-1.42-10.17-5.4-14.69-4.16-4.73-9.59-7.45-14.9-7.45-5.66,0-10.72,3.67-16.08,7.54-2.34,1.7-4.71,3.41-7.19,4.86,2.96,3.09,4.75,7.57,5.14,13.07.16,2.22-.41,8.98-4.89,13.57-2.8,2.86-6.65,4.35-11.17,4.35-.34,0-.69,0-1.03-.02-6.63-.33-11.43-3.53-13.53-9.04-1.85-4.85-1.25-10.45.66-15.22-4.06,2.62-6.11,6.94-6.11,12.96,0,12.6,11.73,17.07,21.77,17.07,4.69,0,9.23-2.07,13.49-6.15,3.43-3.29,6.01-7.31,7.29-9.97.83-1.75,2.92-2.49,4.67-1.65,1.74.83,2.48,2.92,1.64,4.67-.74,1.56-3.58,7.04-8.76,12-5.53,5.3-11.87,8.1-18.33,8.1-8.74,0-15.36-2.34-20.03-5.98-.64,1.16-1.45,2.29-2.43,3.35-3.45,3.74-8.23,5.97-12.78,5.97-5.58,0-10.37-2.27-13.79-6.16-2.37,2.37-5.75,4.2-9.78,4.64,1.79,11.74,11.47,32.39,43,32.39,25.49,0,44.3-9.36,55.89-27.82,9.45-15.03,11.62-32.24,12.55-39.59l.1-.8ZM84.53,133.6c2.69-2.73,2.98-7.38,2.93-8.18-.26-3.7-1.46-8.49-5.6-10.44-1.49.36-3.02.58-4.63.58-.94,0-1.84.04-2.72.1-.07.08-.12.16-.19.23-3.81,3.74-5.66,10.94-3.96,15.4,1.09,2.87,3.49,4.35,7.33,4.54,2.98.14,5.23-.58,6.84-2.23ZM64.51,110.7c1-1.79,2.59-9.7-.05-14.25-1.4-2.41-3.89-3.6-7.61-3.63-4.47-.06-8.49,1.76-12.03,5.35-8.46,8.59-12.6,25.97-12.3,38.71.06,2.78.58,5.27,1.48,7.4.24.33.41.7.52,1.09,2.13,4.1,5.8,6.56,10.38,6.56,2.59,0,5.52-1.43,7.64-3.72,1.36-1.47,2.2-3.12,2.29-4.44-2.33-3.73-3.46-8-3.46-12.25,0-10.25,4.66-17.41,13.12-20.78.01-.01.01-.02.02-.04ZM33.88,101.39c-1.11-1.54-2.75-2.8-6.52-2.84h-.03c-4.34,0-19.61,8.23-20.07,34.62-.09,4.98,1.18,9.5,3.59,12.72,1.16,1.57,3,3.37,5.62,4.19.33-.1.67-.17,1.02-.17.74,0,1.42.23,1.98.61,3.98.01,6.7-2.32,7.83-4.16-1.07-2.78-1.7-5.91-1.78-9.32-.25-10.72,2.35-24.95,8.36-35.65Z"/>
      <path class="cls-1" d="M142.04,7.25c11.52,0,13.24,10.32,13.24,16.47,0,10.74-13.23,35.15-22.9,52.96-3.85,7.12-7.3,13.47-9.48,18.14-3.31-1.54-6.82-2.37-10.33-2.37-7.93,0-14.16,4.51-20.18,8.87-5.14,3.72-10,7.24-15.16,7.24-1.71,0-3.33.11-4.89.29.93-4.61,1.06-10.94-1.82-15.91-.4-.69-.91-1.42-1.52-2.12-4.63-11-9.57-20.24-13.93-28.41-8.1-15.17-14.51-27.15-13.82-41,.34-6.94,6.89-13.5,13.47-13.5,20.58,0,27.74,28.07,32.97,48.56,1.82,7.15,3.4,13.33,5.32,17.7.48,1.09,1.48,1.86,2.66,2.04,1.18.19,2.37-.24,3.16-1.13,2.39-2.69,4.25-8.26,7.35-17.87,6.4-19.9,16.07-49.96,35.86-49.96Z"/>
      <path class="cls-1" d="M127.47,106.9c3.98,4.52,6,10.01,5.4,14.69l-.1.8c-.93,7.35-3.1,24.56-12.55,39.59-11.59,18.46-30.4,27.82-55.89,27.82-31.53,0-41.21-20.65-43-32.39,4.03-.44,7.41-2.27,9.78-4.64,3.42,3.89,8.21,6.16,13.79,6.16,4.55,0,9.33-2.23,12.78-5.97.98-1.06,1.79-2.19,2.43-3.35,4.67,3.64,11.29,5.98,20.03,5.98,6.46,0,12.8-2.8,18.33-8.1,5.18-4.96,8.02-10.44,8.76-12,.84-1.75.1-3.84-1.64-4.67-1.75-.84-3.84-.1-4.67,1.65-1.28,2.66-3.86,6.68-7.29,9.97-4.26,4.08-8.8,6.15-13.49,6.15-10.04,0-21.77-4.47-21.77-17.07,0-6.02,2.05-10.34,6.11-12.96-1.91,4.77-2.51,10.37-.66,15.22,2.1,5.51,6.9,8.71,13.53,9.04.34.02.69.02,1.03.02,4.52,0,8.37-1.49,11.17-4.35,4.48-4.59,5.05-11.35,4.89-13.57-.39-5.5-2.18-9.98-5.14-13.07,2.48-1.45,4.85-3.16,7.19-4.86,5.36-3.87,10.42-7.54,16.08-7.54,5.31,0,10.74,2.72,14.9,7.45Z"/>
      <path class="cls-1" d="M87.46,125.42c.05.8-.24,5.45-2.93,8.18-1.61,1.65-3.86,2.37-6.84,2.23-3.84-.19-6.24-1.67-7.33-4.54-1.7-4.46.15-11.66,3.96-15.4.07-.07.12-.15.19-.23.88-.06,1.78-.1,2.72-.1,1.61,0,3.14-.22,4.63-.58,4.14,1.95,5.34,6.74,5.6,10.44Z"/>
      <path class="cls-1" d="M64.46,96.45c2.64,4.55,1.05,12.46.05,14.25-.01.02-.01.03-.02.04-8.46,3.37-13.12,10.53-13.12,20.78,0,4.25,1.13,8.52,3.46,12.25-.09,1.32-.93,2.97-2.29,4.44-2.12,2.29-5.05,3.72-7.64,3.72-4.58,0-8.25-2.46-10.38-6.56-.11-.39-.28-.76-.52-1.09-.9-2.13-1.42-4.62-1.48-7.4-.3-12.74,3.84-30.12,12.3-38.71,3.54-3.59,7.56-5.41,12.03-5.35,3.72.03,6.21,1.22,7.61,3.63Z"/>
      <path class="cls-1" d="M27.36,98.55c3.77.04,5.41,1.3,6.52,2.84-6.01,10.7-8.61,24.93-8.36,35.65.08,3.41.71,6.54,1.78,9.32-1.13,1.84-3.85,4.17-7.83,4.16-.56-.38-1.24-.61-1.98-.61-.35,0-.69.07-1.02.17-2.62-.82-4.46-2.62-5.62-4.19-2.41-3.22-3.68-7.74-3.59-12.72.46-26.39,15.73-34.62,20.07-34.62h.03Z"/>
    </g>
  </g>
</svg>